#!OML:ASF X:\für Bonn\!DataBase\2005_08_11_Bastian_Final\c3d\Bastian.ASF
:FULLY-SPECIFIED
:DEGREES
76
root 7.27751 15.5042 -4.10783 200.627 82.7973 -146.625
lowerback 55.2302 -6.17523 6.28211
upperback 18.4864 1.30114 5.7203
thorax -0.378279 2.32714 2.92183
lowerneck -4.96305 -12.8205 -3.58368
upperneck -10.7121 -16.131 17.5725
head -0.547478 -8.35353 5.45203
rclavicle 3.18055e-014 2.06736e-014
rhumerus 20.6496 9.73343 -57.712
rradius 29.6364
rwrist -3.35736
rhand -32.1928 -2.84884
rfingers 7.12502
rthumb -5.43492 -32.7591
lclavicle 3.18055e-014 2.06736e-014
lhumerus -2.0232 -22.127 84.6102
lradius 34.7794
lwrist 16.3143
lhand -12.5977 -7.41467
lfingers 7.12502
lthumb 13.4809 22.129
rfemur -32.928 -4.704 22.74
rtibia 61.2988
rfoot -10.655 0.046658
rtoes -4.64418
lfemur -24.7905 10.1593 -19.4797
ltibia 69.1911
lfoot -23.2087 -5.84668
ltoes -2.14985
77
root 7.27001 15.4151 -4.11573 200.083 82.9618 -147.493
lowerback 55.876 -6.2062 6.34077
upperback 18.4738 1.42734 5.74091
thorax -0.430433 2.39758 2.88993
lowerneck -5.04863 -12.8963 -3.68216
upperneck -10.9923 -16.1923 17.8245
head -0.575996 -8.3968 5.54016
rclavicle -6.36111e-014 -8.50798e-014
rhumerus 21.5563 9.38181 -57.0932
rradius 29.4105
rwrist -3.55497
rhand -32.0248 -2.88714
rfingers 7.12502
rthumb -5.27268 -32.8015
lclavicle -6.36111e-014 -8.50798e-014
lhumerus -1.95098 -22.2735 84.4193
lradius 34.7476
lwrist 16.4739
lhand -12.6173 -7.46557
lfingers 7.12502
lthumb 13.4621 22.0794
rfemur -34.1253 -4.75296 22.5734
rtibia 62.6101
rfoot -10.8664 0.204585
rtoes -4.27749
lfemur -25.708 10.158 -19.8322
ltibia 70.2939
lfoot -23.8296 -5.79694
ltoes -1.57105
78
root 7.26271 15.3241 -4.12339 199.571 83.1341 -148.326
lowerback 56.4941 -6.23457 6.42912
upperback 18.4575 1.56293 5.72843
thorax -0.477729 2.47675 2.80512
lowerneck -5.11751 -12.9786 -3.63546
upperneck -11.3065 -16.2632 18.0133
head -0.635075 -8.45131 5.59289
rclavicle 1.59028e-014 2.94201e-014
rhumerus 22.4275 8.89482 -56.5964
rradius 29.1302
rwrist -3.68719
rhand -31.8225 -2.94439
rfingers 7.12502
rthumb -5.07732 -32.8636
lclavicle 1.59028e-014 2.94201e-014
lhumerus -1.86278 -22.453 84.1846
lradius 34.7262
lwrist 16.5918
lhand -12.6156 -7.49881
lfingers 7.12502
lthumb 13.4637 22.046
rfemur -35.335 -4.7613 22.4142
rtibia 63.9325
rfoot -11.1226 0.328701
rtoes -4.04069
lfemur -26.6478 10.1757 -20.1791
ltibia 71.4255
lfoot -24.463 -5.71881
ltoes -1.28828
79
root 7.2565 15.2313 -4.1318 198.24 83.342 -149.982
lowerback 57.1198 -6.22448 6.42503
upperback 18.4089 1.68903 5.71841
thorax -0.563922 2.54092 2.76447
lowerneck -5.14943 -13.0607 -3.6206
upperneck -11.5938 -16.3366 18.1987
head -0.689378 -8.50694 5.65028
rclavicle 6.36111e-015 -1.19271e-014
rhumerus 23.2649 8.4647 -56.0751
rradius 28.8492
rwrist -3.79686
rhand -31.6464 -2.98504
rfingers 7.12502
rthumb -4.90734 -32.9082
lclavicle 6.36111e-015 -1.19271e-014
lhumerus -1.82765 -22.5914 83.9916
lradius 34.7008
lwrist 16.7186
lhand -12.5718 -7.64512
lfingers 7.12502
lthumb 13.5059 21.8969
rfemur -36.5516 -4.81335 22.1516
rtibia 65.2652
rfoot -11.4056 0.470686
rtoes -4.19557
lfemur -27.585 10.1883 -20.6463
ltibia 72.5663
lfoot -25.0719 -5.64411
ltoes -0.684208
80
root 7.2508 15.1355 -4.14091 197.447 83.5189 -151.05
lowerback 57.7192 -6.25531 6.50037
upperback 18.4104 1.81591 5.69839
thorax -0.582411 2.61763 2.68114
lowerneck -5.25821 -13.1401 -3.53659
upperneck -11.903 -16.4055 18.3516
head -0.747567 -8.55962 5.68519
rclavicle 9.54166e-015 -1.90833e-014
rhumerus 24.1279 7.89891 -55.6553
rradius 28.5682
rwrist -3.83058
rhand -31.4596 -2.9962
rfingers 7.12502
rthumb -4.72693 -32.9235
lclavicle 9.54166e-015 -1.90833e-014
lhumerus -1.70954 -22.6802 83.7842
lradius 34.6506
lwrist 16.784
lhand -12.486 -7.78025
lfingers 7.12502
lthumb 13.5887 21.7563
rfemur -37.7108 -4.83218 21.9666
rtibia 66.5876
rfoot -11.6844 0.57302
rtoes -4.11025
lfemur -28.4907 10.1927 -21.0082
ltibia 73.737
lfoot -25.7211 -5.56425
ltoes -0.343528
81
root 7.2448 15.0383 -4.15029 197.567 83.637 -151.141
lowerback 58.3691 -6.32962 6.66433
upperback 18.375 1.95229 5.69958
thorax -0.635034 2.70028 2.5806
lowerneck -5.24105 -13.2169 -3.50781
upperneck -12.2503 -16.4634 18.5314
head -0.830576 -8.61343 5.74695
rclavicle 1.27222e-014 2.06736e-014
rhumerus 24.9558 7.3473 -55.2718
rradius 28.2427
rwrist -3.82197
rhand -31.334 -3.05573
rfingers 7.12502
rthumb -4.60561 -32.9857
lclavicle 1.27222e-014 2.06736e-014
lhumerus -1.67353 -22.7722 83.6141
lradius 34.6192
lwrist 16.8902
lhand -12.3381 -7.9739
lfingers 7.12502
lthumb 13.7312 21.553
rfemur -38.7917 -4.8591 21.9166
rtibia 67.89
rfoot -11.9982 0.673962
rtoes -3.93645
lfemur -29.3501 10.2145 -21.207
ltibia 74.9258
lfoot -26.3218 -5.57012
ltoes 0.176036
82
root 7.2404 14.9398 -4.15995 197.158 83.7785 -151.754
lowerback 58.9905 -6.38396 6.78083
upperback 18.3577 2.08364 5.6922
thorax -0.664531 2.77968 2.4932
lowerneck -5.3612 -13.3328 -3.25345
upperneck -12.4383 -16.6186 18.4221
head -0.885516 -8.70611 5.67297
rclavicle 4.77083e-014 4.37326e-014
rhumerus 25.7546 6.78282 -54.8995
rradius 27.9203
rwrist -3.82719
rhand -31.2695 -3.00955
rfingers 7.12502
rthumb -4.54339 -32.9408
lclavicle 4.77083e-014 4.37326e-014
lhumerus -1.60763 -22.8892 83.4431
lradius 34.6073
lwrist 16.9789
lhand -12.3056 -8.12497
lfingers 7.12502
lthumb 13.7625 21.3998
rfemur -39.8588 -4.89189 21.7952
rtibia 69.1922
rfoot -12.3182 0.758229
rtoes -4.04797
lfemur -30.2011 10.2262 -21.4906
ltibia 76.1205
lfoot -26.9605 -5.51271
ltoes 0.545443
83
root 7.23685 14.839 -4.16897 196.392 83.91 -152.71
lowerback 59.5861 -6.4415 6.86591
upperback 18.3563 2.19238 5.6707
thorax -0.672255 2.84929 2.41272
lowerneck -5.46132 -13.4108 -3.13254
upperneck -12.7091 -16.6935 18.5338
head -0.941147 -8.76213 5.69015
rclavicle -4.45278e-014 -7.95139e-014
rhumerus 26.5287 6.21845 -54.5517
rradius 27.6245
rwrist -3.84101
rhand -31.207 -2.94589
rfingers 7.12502
rthumb -4.48305 -32.8784
lclavicle -4.45278e-014 -7.95139e-014
lhumerus -1.54224 -22.9837 83.2407
lradius 34.6211
lwrist 17.1175
lhand -12.229 -8.30689
lfingers 7.12502
lthumb 13.8364 21.2129
rfemur -40.9164 -4.91593 21.6401
rtibia 70.5015
rfoot -12.651 0.820869
rtoes -4.09179
lfemur -31.0481 10.1977 -21.7917
ltibia 77.3321
lfoot -27.5751 -5.49523
ltoes 1.24412
84
root 7.23404 14.7357 -4.17715 195.666 84.047 -153.638
lowerback 60.1163 -6.46079 6.91559
upperback 18.3739 2.3185 5.6948
thorax -0.660213 2.91997 2.38919
lowerneck -5.46527 -13.4829 -3.07412
upperneck -13.0617 -16.7486 18.6486
head -1.03233 -8.8144 5.72934
rclavicle -2.06736e-014 -2.38542e-014
rhumerus 27.2381 5.79436 -54.0301
rradius 27.3991
rwrist -3.99993
rhand -31.1399 -2.85955
rfingers 7.12502
rthumb -4.41823 -32.7935
lclavicle -2.06736e-014 -2.38542e-014
lhumerus -1.47028 -23.0391 83.1127
lradius 34.6132
lwrist 17.2683
lhand -12.2271 -8.49227
lfingers 7.12502
lthumb 13.8382 21.0274
rfemur -41.9914 -4.95004 21.4968
rtibia 71.8179
rfoot -12.9885 0.887622
rtoes -4.21069
lfemur -31.9221 10.1824 -22.098
ltibia 78.5576
lfoot -28.195 -5.44191
ltoes 1.58029
85
root 7.2321 14.6303 -4.18502 194.668 84.1807 -154.833
lowerback 60.6345 -6.49842 6.97488
upperback 18.3896 2.42209 5.66742
thorax -0.642579 2.98614 2.31397
lowerneck -5.47297 -13.546 -2.9059
upperneck -13.399 -16.7946 18.7546
head -1.13051 -8.86603 5.75121
rclavicle 3.81667e-014 4.77083e-015
rhumerus 27.8729 5.35582 -53.5966
rradius 27.2221
rwrist -4.14729
rhand -31.1499 -2.83914
rfingers 7.12502
rthumb -4.42793 -32.7729
lclavicle 3.81667e-014 4.77083e-015
lhumerus -1.35963 -23.0586 82.9076
lradius 34.5976
lwrist 17.3994
lhand -12.1759 -8.67622
lfingers 7.12502
lthumb 13.8875 20.8401
rfemur -43.0738 -4.99307 21.3303
rtibia 73.1569
rfoot -13.3486 0.953474
rtoes -4.15193
lfemur -32.8082 10.1443 -22.4254
ltibia 79.8022
lfoot -28.8047 -5.37001
ltoes 2.01444
86
root 7.23073 14.5229 -4.19207 193.451 84.3431 -156.246
lowerback 61.1083 -6.48376 6.96969
upperback 18.425 2.54185 5.66712
thorax -0.607463 3.05302 2.28808
lowerneck -5.45641 -13.618 -2.7453
upperneck -13.7408 -16.8559 18.813
head -1.23696 -8.92589 5.76227
rclavicle -1.90833e-014 -2.62396e-014
rhumerus 28.5021 4.84264 -53.2374
rradius 26.9656
rwrist -4.05234
rhand -31.2469 -2.68502
rfingers 7.12502
rthumb -4.52157 -32.6168
lclavicle -1.90833e-014 -2.62396e-014
lhumerus -1.25128 -23.1462 82.7298
lradius 34.6229
lwrist 17.5802
lhand -12.232 -8.80823
lfingers 7.12502
lthumb 13.8335 20.7118
rfemur -44.1725 -5.00708 21.1432
rtibia 74.505
rfoot -13.7019 0.992289
rtoes -4.45709
lfemur -33.7031 10.1621 -22.7729
ltibia 81.0659
lfoot -29.4132 -5.33238
ltoes 2.39204
87
root 7.23069 14.4125 -4.19996 192.041 84.4947 -157.867
lowerback 61.5211 -6.45855 6.94405
upperback 18.4661 2.65201 5.68989
thorax -0.566911 3.1105 2.29788
lowerneck -5.34026 -13.6791 -2.64077
upperneck -14.1273 -16.8932 18.8932
head -1.36764 -8.97905 5.79877
rclavicle 5.88403e-014 4.77083e-015
rhumerus 29.0762 4.43162 -52.8039
rradius 26.7608
rwrist -3.9829
rhand -31.3877 -2.58458
rfingers 7.12502
rthumb -4.65755 -32.5134
lclavicle 5.88403e-014 4.77083e-015
lhumerus -1.17306 -23.2235 82.6033
lradius 34.6679
lwrist 17.7489
lhand -12.3615 -8.87373
lfingers 7.12502
lthumb 13.7086 20.6547
rfemur -45.2997 -5.02217 20.939
rtibia 75.87
rfoot -14.0682 1.04894
rtoes -4.46175
lfemur -34.6157 10.1665 -23.1355
ltibia 82.3394
lfoot -30.0057 -5.33763
ltoes 3.09259
